<svg xmlns="http://www.w3.org/2000/svg" height="429pt" version="1.1" viewBox="0 -27 429.65455 429" width="429pt">
<g id="surface1">
<path d="M 359.707031 127.425781 L 416.007812 127.425781 L 416.007812 365.828125 L 359.707031 365.828125 Z M 359.707031 127.425781 " style=" stroke:none;fill-rule:nonzero;fill:rgb(87.058824%,100%,90.980392%);fill-opacity:1;" />
<path d="M 419.605469 42.128906 C 419.605469 59.691406 405.371094 73.925781 387.808594 73.925781 C 370.246094 73.925781 356.007812 59.691406 356.007812 42.128906 C 356.007812 24.566406 370.246094 10.328125 387.808594 10.328125 C 405.371094 10.328125 419.605469 24.566406 419.605469 42.128906 Z M 419.605469 42.128906 " style=" stroke:none;fill-rule:nonzero;fill:rgb(46.666667%,96.862745%,66.666667%);fill-opacity:1;" />
<path d="M 244.308594 199.628906 L 300.605469 199.628906 L 300.605469 365.925781 L 244.308594 365.925781 Z M 244.308594 199.628906 " style=" stroke:none;fill-rule:nonzero;fill:rgb(46.666667%,96.862745%,66.666667%);fill-opacity:1;" />
<path d="M 304.308594 114.527344 C 304.308594 132.089844 290.070312 146.328125 272.507812 146.328125 C 254.945312 146.328125 240.707031 132.089844 240.707031 114.527344 C 240.707031 96.964844 254.945312 82.726562 272.507812 82.726562 C 290.070312 82.726562 304.308594 96.964844 304.308594 114.527344 Z M 304.308594 114.527344 " style=" stroke:none;fill-rule:nonzero;fill:rgb(46.666667%,96.862745%,66.666667%);fill-opacity:1;" />
<path d="M 188.90625 188.027344 C 188.90625 205.589844 174.667969 219.828125 157.105469 219.828125 C 139.542969 219.828125 125.308594 205.589844 125.308594 188.027344 C 125.308594 170.464844 139.542969 156.226562 157.105469 156.226562 C 174.667969 156.226562 188.90625 170.464844 188.90625 188.027344 Z M 188.90625 188.027344 " style=" stroke:none;fill-rule:nonzero;fill:rgb(46.666667%,96.862745%,66.666667%);fill-opacity:1;" />
<path d="M 128.90625 273.726562 L 185.207031 273.726562 L 185.207031 365.925781 L 128.90625 365.925781 Z M 128.90625 273.726562 " style=" stroke:none;fill-rule:nonzero;fill:rgb(87.058824%,100%,90.980392%);fill-opacity:1;" />
<path d="M 73.605469 167.027344 C 73.605469 184.589844 59.371094 198.828125 41.808594 198.828125 C 24.246094 198.828125 10.007812 184.589844 10.007812 167.027344 C 10.007812 149.464844 24.246094 135.226562 41.808594 135.226562 C 59.371094 135.226562 73.605469 149.464844 73.605469 167.027344 Z M 73.605469 167.027344 " style=" stroke:none;fill-rule:nonzero;fill:rgb(46.666667%,96.862745%,66.666667%);fill-opacity:1;" />
<path d="M 13.605469 253.027344 L 69.90625 253.027344 L 69.90625 365.925781 L 13.605469 365.925781 Z M 13.605469 253.027344 " style=" stroke:none;fill-rule:nonzero;fill:rgb(46.666667%,96.862745%,66.666667%);fill-opacity:1;" />
<path d="M 387.808594 0.328125 C 364.707031 0.328125 346.007812 19.027344 346.007812 42.128906 C 346.007812 45.828125 346.507812 49.527344 347.507812 53.128906 L 302.207031 85.226562 C 286.007812 68.828125 259.507812 68.628906 243.105469 84.828125 C 231.507812 96.328125 227.605469 113.425781 233.207031 128.828125 L 191.40625 164.027344 C 178.207031 145.128906 152.207031 140.425781 133.207031 153.628906 C 126.007812 158.628906 120.605469 165.828125 117.707031 174.027344 L 83.007812 159.925781 C 79.105469 137.128906 57.605469 121.828125 34.808594 125.726562 C 12.007812 129.628906 -3.292969 151.128906 0.605469 173.925781 C 4.507812 196.726562 26.007812 212.027344 48.808594 208.128906 C 63.808594 205.628906 76.207031 195.128906 81.308594 180.828125 L 116.007812 194.925781 C 119.808594 217.726562 141.40625 233.027344 164.207031 229.226562 C 184.308594 225.828125 199.007812 208.425781 199.007812 188.027344 C 199.007812 186.726562 198.90625 185.328125 198.808594 184.027344 L 244.40625 145.527344 C 261.507812 161.027344 287.90625 159.828125 303.40625 142.726562 C 313.308594 131.828125 316.707031 116.628906 312.507812 102.527344 L 357.308594 70.726562 C 373.105469 87.628906 399.507812 88.425781 416.40625 72.726562 C 433.308594 56.925781 434.105469 30.527344 418.40625 13.628906 C 410.507812 5.128906 399.40625 0.328125 387.808594 0.328125 Z M 41.808594 188.828125 C 29.808594 188.828125 20.007812 179.027344 20.007812 167.027344 C 20.007812 155.027344 29.808594 145.226562 41.808594 145.226562 C 53.808594 145.226562 63.605469 155.027344 63.605469 167.027344 C 63.605469 179.027344 53.808594 188.828125 41.808594 188.828125 Z M 157.105469 209.828125 C 145.105469 209.828125 135.308594 200.027344 135.308594 188.027344 C 135.308594 176.027344 145.105469 166.226562 157.105469 166.226562 C 169.105469 166.226562 178.90625 176.027344 178.90625 188.027344 C 178.90625 200.027344 169.207031 209.828125 157.105469 209.828125 Z M 272.507812 136.425781 C 260.507812 136.425781 250.707031 126.628906 250.707031 114.628906 C 250.707031 102.628906 260.507812 92.828125 272.507812 92.828125 C 284.507812 92.828125 294.308594 102.628906 294.308594 114.628906 C 294.308594 126.628906 284.507812 136.328125 272.507812 136.425781 Z M 387.808594 63.925781 C 375.808594 63.925781 366.007812 54.128906 366.007812 42.128906 C 366.007812 30.128906 375.808594 20.328125 387.808594 20.328125 C 399.808594 20.328125 409.605469 30.128906 409.605469 42.128906 C 409.605469 54.226562 399.90625 63.925781 387.808594 63.925781 Z M 387.808594 63.925781 " style=" stroke:none;fill-rule:nonzero;fill:rgb(14.117647%,70.196078%,38.039216%);fill-opacity:1;" />
<path d="M 425.808594 127.128906 C 425.808594 121.628906 421.308594 117.128906 415.808594 117.128906 L 359.808594 117.128906 C 354.308594 117.128906 349.808594 121.628906 349.808594 127.128906 L 349.808594 365.128906 C 349.808594 370.628906 354.308594 375.128906 359.808594 375.128906 L 415.808594 375.128906 C 421.308594 375.128906 425.808594 370.628906 425.808594 365.128906 Z M 405.808594 356.128906 L 369.808594 356.128906 L 369.808594 137.128906 L 405.808594 137.128906 Z M 405.808594 356.128906 " style=" stroke:none;fill-rule:nonzero;fill:rgb(14.117647%,70.196078%,38.039216%);fill-opacity:1;" />
<path d="M 310.808594 199.128906 C 310.808594 193.628906 306.308594 189.128906 300.808594 189.128906 L 244.808594 189.128906 C 239.308594 189.128906 234.808594 193.628906 234.808594 199.128906 L 234.808594 365.128906 C 234.808594 370.628906 239.308594 375.128906 244.808594 375.128906 L 300.808594 375.128906 C 306.308594 375.128906 310.808594 370.628906 310.808594 365.128906 Z M 290.808594 356.128906 L 254.808594 356.128906 L 254.808594 209.128906 L 290.808594 209.128906 Z M 290.808594 356.128906 " style=" stroke:none;fill-rule:nonzero;fill:rgb(14.117647%,70.196078%,38.039216%);fill-opacity:1;" />
<path d="M 194.808594 274.128906 C 194.808594 268.628906 190.308594 264.128906 184.808594 264.128906 L 128.808594 264.128906 C 123.308594 264.128906 118.808594 268.628906 118.808594 274.128906 L 118.808594 366.128906 C 118.808594 371.628906 123.308594 376.128906 128.808594 376.128906 L 184.808594 376.128906 C 190.308594 376.128906 194.808594 371.628906 194.808594 366.128906 Z M 174.808594 356.128906 L 138.808594 356.128906 L 138.808594 284.128906 L 174.808594 284.128906 Z M 174.808594 356.128906 " style=" stroke:none;fill-rule:nonzero;fill:rgb(14.117647%,70.196078%,38.039216%);fill-opacity:1;" />
<path d="M 79.808594 253.128906 C 79.808594 247.628906 75.308594 243.128906 69.808594 243.128906 L 13.808594 243.128906 C 8.308594 243.128906 3.808594 247.628906 3.808594 253.128906 L 3.808594 366.128906 C 3.808594 371.628906 8.308594 376.128906 13.808594 376.128906 L 69.808594 376.128906 C 75.308594 376.128906 79.808594 371.628906 79.808594 366.128906 Z M 59.808594 356.128906 L 23.808594 356.128906 L 23.808594 263.128906 L 59.808594 263.128906 Z M 59.808594 356.128906 " style=" stroke:none;fill-rule:nonzero;fill:rgb(14.117647%,70.196078%,38.039216%);fill-opacity:1;" />
</g>
</svg>