<?xml version="1.0" encoding="iso-8859-1"?>
<!-- Generator: Adobe Illustrator 19.0.0, SVG Export Plug-In . SVG Version: 6.00 Build 0)  -->
<svg version="1.1" id="Capa_1" xmlns="http://www.w3.org/2000/svg" xmlns:xlink="http://www.w3.org/1999/xlink" x="0px" y="0px"
	 viewBox="0 0 383.992 383.992" style="enable-background:new 0 0 383.992 383.992;" xml:space="preserve">
<g>
	<path style="fill:#00FFB0;" d="M191.588,261.672c-0.8,1.36-1.44,2.72-2,4.16c-1.36,2.8-2.48,5.6-3.36,8.64
		c-0.48,1.44-0.88,2.88-1.28,4.4c-1.52,6.08-2.32,12.48-2.32,19.04v17.12H39.988v-53.36H191.588z"/>
	<path style="fill:#00FFB0;" d="M201.348,95.752c0,0.72,0,1.44-0.16,2.08c-11.12,13.36-18.08,30.32-18.56,48.88
		c-8.8,10.64-20.32,18.8-33.52,23.68c-8.72,3.36-18.4,5.12-28.4,5.12s-19.68-1.76-28.4-5.12c-30.56-11.28-52.32-40.4-52.32-74.64
		c0-44,36.24-79.76,80.72-79.76C165.268,15.992,201.348,51.752,201.348,95.752z"/>
</g>
<path style="fill:#000A64;" d="M359.996,148.68c0-52.8-43.344-95.752-96.616-95.752c-18.072,0-35.48,4.984-50.504,14.128
	C200.54,28.232,163.892,0,120.7,0C67.38,0,23.996,42.952,23.996,95.752c0,29.424,13.848,56.768,36.264,74.632
	c-22.408,17.872-36.264,45.216-36.264,74.632v70.04c0,8.832,7.168,16,16,16h126.68v36.936c0,8.832,7.168,16,16,16h161.32
	c8.832,0,16-7.168,16-16v-70.048c0-29.416-13.808-56.768-36.152-74.632C346.188,205.448,359.996,178.104,359.996,148.68z
	 M55.996,95.752C55.996,60.6,85.02,32,120.7,32c34.472,0,62.64,26.792,64.472,60.52c-10.336,14.04-16.504,30.216-18.064,47.416
	c-6.6,6.8-14.568,12.16-23.48,15.424c-0.024,0.008-0.048,0.024-0.08,0.04c-0.048,0.016-0.096,0.024-0.144,0.04
	c-13.84,5.328-31.408,5.368-45.312,0.008c-0.04-0.016-0.08-0.016-0.12-0.032c-0.032-0.008-0.056-0.032-0.088-0.04
	C72.828,146.128,55.996,122.16,55.996,95.752z M168.668,278.952c-0.208,1.024-0.448,2.04-0.624,3.072
	c-0.296,1.752-0.504,3.52-0.704,5.288c-0.096,0.872-0.24,1.744-0.312,2.616c-0.224,2.656-0.352,5.328-0.352,8.016v1.112H55.996
	v-21.352h112.928C168.836,278.12,168.756,278.536,168.668,278.952z M184.604,242.52c-0.648,0.896-1.248,1.816-1.864,2.736
	c-0.104,0.152-0.208,0.296-0.304,0.448H55.996v-0.688c0-24.616,14.624-47.112,36.904-57.544c17.568,5.304,37.896,5.328,55.664-0.008
	c21.16,9.944,35.384,30.856,36.656,54.144C185.004,241.896,184.82,242.216,184.604,242.52z M327.996,351.992h-129.32v-20.936h129.32
	V351.992z M327.996,297.944v1.112h-129.32v-1.112c0-9.2,2.024-18.216,5.824-26.416c1.2-1.536,2.112-3.28,2.696-5.192
	c1.832-3.144,3.944-6.136,6.32-8.928c0.016-0.016,0.024-0.04,0.04-0.056c0.016-0.016,0.04-0.032,0.056-0.056
	c5.904-7.088,13.44-12.848,22-16.88c0.36,0.112,0.744,0.184,1.104,0.288c0.8,0.232,1.616,0.416,2.424,0.632
	c1.68,0.432,3.368,0.832,5.08,1.168c1.128,0.224,2.264,0.424,3.4,0.616c1.384,0.216,2.768,0.4,4.168,0.56
	c1.32,0.152,2.64,0.32,3.968,0.416c1.328,0.104,2.656,0.128,3.992,0.176c1.216,0.04,2.408,0.16,3.632,0.16
	c1.184,0,2.36-0.112,3.544-0.16c1.376-0.048,2.744-0.08,4.112-0.184c1.296-0.096,2.568-0.256,3.848-0.408
	c1.448-0.168,2.88-0.352,4.312-0.576c1.16-0.184,2.296-0.392,3.44-0.616c1.584-0.312,3.136-0.672,4.688-1.064
	c0.992-0.248,1.984-0.488,2.96-0.768c0.32-0.088,0.648-0.16,0.96-0.248C313.436,250.824,327.996,273.32,327.996,297.944z
	 M286.084,208.376c-10.48,4.024-23.096,5.016-34.648,2.928c-3.736-0.68-7.392-1.672-10.872-3.008
	c-25.056-9.24-41.88-33.2-41.88-59.616v-1.632c0.36-14.288,5.48-27.728,14.8-38.88l0.008-0.008
	c12.384-14.768,30.568-23.224,49.888-23.224c35.632,0,64.616,28.6,64.616,63.752C327.996,175.112,311.228,199.072,286.084,208.376z"
	/>
<g>
</g>
<g>
</g>
<g>
</g>
<g>
</g>
<g>
</g>
<g>
</g>
<g>
</g>
<g>
</g>
<g>
</g>
<g>
</g>
<g>
</g>
<g>
</g>
<g>
</g>
<g>
</g>
<g>
</g>
</svg>
