<svg id="Layer_1" enable-background="new 0 0 512 512" height="512" viewBox="0 0 512 512" width="512" xmlns="http://www.w3.org/2000/svg"><g><path d="m488.5 489h-465c-8.837 0-16-7.163-16-16 0-8.837 7.163-16 16-16h465c8.837 0 16 7.163 16 16 0 8.837-7.163 16-16 16z" fill="#a16035"/><path d="m488.5 457h-30c8.837 0 16 7.163 16 16 0 8.837-7.163 16-16 16h30c8.837 0 16-7.163 16-16 0-8.837-7.163-16-16-16z" fill="#945831"/><path d="m46 201h420v256h-420z" fill="#bdf9ff"/><path d="m436 201h30v256h-30z" fill="#8cf2ff"/><path d="m492.758 201h-473.516c-11.669 0-16.171-15.259-6.385-21.643l236.758-154.457c3.883-2.533 8.887-2.533 12.77 0l236.758 154.457c9.786 6.384 5.284 21.643-6.385 21.643z" fill="#8cf2ff"/><path d="m499.143 179.357-236.758-154.457c-3.883-2.533-8.887-2.533-12.77 0l-8.615 5.62 228.143 148.836c9.786 6.384 5.284 21.643-6.385 21.643h30c11.669.001 16.17-15.258 6.385-21.642z" fill="#63e9ff"/><path d="m177 366.767c0 31.943-17.909 47.908-40 47.908s-40-15.965-40-47.908 32.644-67.767 40-67.767 40 35.825 40 67.767z" fill="#64cc56"/><path d="m137 299c-2.638 0-8.53 4.622-15 12.004 11.573 13.205 25 35.275 25 55.763 0 24.27-10.343 39.306-25 45.134 4.633 1.842 9.694 2.774 15 2.774 22.091 0 40-15.965 40-47.908s-32.644-67.767-40-67.767z" fill="#5bbd4f"/><path d="m415 366.767c0 31.943-17.909 47.908-40 47.908s-40-15.965-40-47.908 32.644-67.767 40-67.767 40 35.825 40 67.767z" fill="#64cc56"/><path d="m375 299c-2.638 0-8.53 4.622-15 12.004 11.573 13.205 25 35.275 25 55.763 0 24.27-10.343 39.306-25 45.134 4.633 1.842 9.694 2.774 15 2.774 22.091 0 40-15.965 40-47.908s-32.644-67.767-40-67.767z" fill="#5bbd4f"/><path d="m296 366.767c0 31.943-17.909 47.908-40 47.908s-40-15.965-40-47.908 32.644-67.767 40-67.767 40 35.825 40 67.767z" fill="#64cc56"/><path d="m256 299c-2.638 0-8.53 4.622-15 12.004 11.573 13.205 25 35.275 25 55.763 0 24.27-10.343 39.306-25 45.134 4.633 1.842 9.694 2.774 15 2.774 22.091 0 40-15.965 40-47.908s-32.644-67.767-40-67.767z" fill="#5bbd4f"/><path d="m488.5 449.5h-15v-241h19.258c8.569 0 15.972-5.532 18.419-13.765 2.455-8.257-.734-16.962-7.937-21.66l-41.568-27.118c-3.47-2.264-8.117-1.286-10.379 2.183-2.264 3.469-1.286 8.116 2.183 10.379l41.569 27.119c2.41 1.572 2.03 3.896 1.754 4.821-.271.914-1.209 3.04-4.042 3.04h-229.257v-65.482h143.187.035l19.957 13.02c3.47 2.264 8.117 1.285 10.379-2.183 2.264-3.469 1.286-8.116-2.183-10.38l-168.392-109.855c-3.106-2.026-6.654-3.063-10.213-3.113-.09-.004-.18-.006-.27-.006s-.18.002-.27.005c-3.559.05-7.107 1.087-10.213 3.113l-236.757 154.457c-7.203 4.698-10.392 13.403-7.937 21.66 2.448 8.233 9.85 13.765 18.419 13.765h19.258v18.269c0 4.142 3.358 7.5 7.5 7.5s7.5-3.358 7.5-7.5v-18.269h405v241h-76v-27.88c10.34-1.556 19.511-6.35 26.341-13.883 8.936-9.856 13.659-24.023 13.659-40.97 0-20.572-11.654-40.262-18.601-50.168-2.939-4.191-18.145-25.099-28.899-25.099s-25.96 20.908-28.899 25.099c-6.947 9.906-18.601 29.597-18.601 50.168 0 16.946 4.723 31.113 13.659 40.97 6.83 7.533 16.001 12.327 26.341 13.883v27.88h-104v-27.88c10.34-1.556 19.511-6.35 26.341-13.883 8.936-9.856 13.659-24.023 13.659-40.97 0-20.572-11.654-40.262-18.601-50.168-2.939-4.191-18.145-25.099-28.899-25.099s-25.96 20.908-28.899 25.099c-6.947 9.906-18.601 29.597-18.601 50.168 0 16.946 4.723 31.113 13.659 40.97 6.83 7.533 16.001 12.327 26.341 13.883v27.88h-104v-27.88c10.34-1.556 19.511-6.35 26.341-13.883 8.936-9.856 13.659-24.023 13.659-40.97 0-20.572-11.654-40.262-18.601-50.168-2.939-4.191-18.145-25.099-28.899-25.099s-25.96 20.908-28.899 25.099c-6.947 9.906-18.601 29.597-18.601 50.168 0 16.946 4.723 31.113 13.659 40.97 6.83 7.533 16.001 12.327 26.341 13.883v27.88h-76v-190.5c0-4.142-3.358-7.5-7.5-7.5s-7.5 3.358-7.5 7.5v190.5h-15c-12.958 0-23.5 10.542-23.5 23.5s10.542 23.5 23.5 23.5h392.577c4.142 0 7.5-3.358 7.5-7.5s-3.358-7.5-7.5-7.5h-392.577c-4.687 0-8.5-3.813-8.5-8.5s3.813-8.5 8.5-8.5h465c4.687 0 8.5 3.813 8.5 8.5s-3.813 8.5-8.5 8.5h-40.423c-4.142 0-7.5 3.358-7.5 7.5s3.358 7.5 7.5 7.5h40.423c12.958 0 23.5-10.542 23.5-23.5s-10.542-23.5-23.5-23.5zm-104.771-336.482h-120.229v-78.436zm-135.229-78.436v78.436h-120.229zm-229.258 158.918c-2.832 0-3.77-2.126-4.042-3.04-.275-.926-.656-3.25 1.755-4.822l88.323-57.621h.035 143.187v65.483zm323.258 173.268c0-25.162 24.136-54.467 32.5-59.783 8.364 5.316 32.5 34.621 32.5 59.783 0 21.648-9.395 36.174-25 39.619v-49.549c0-4.142-3.358-7.5-7.5-7.5s-7.5 3.358-7.5 7.5v49.549c-15.605-3.445-25-17.971-25-39.619zm-119 0c0-25.162 24.136-54.467 32.5-59.783 8.364 5.316 32.5 34.621 32.5 59.783 0 21.648-9.395 36.174-25 39.619v-49.549c0-4.142-3.358-7.5-7.5-7.5s-7.5 3.358-7.5 7.5v49.549c-15.605-3.445-25-17.971-25-39.619zm-119 0c0-25.162 24.136-54.467 32.5-59.783 8.364 5.316 32.5 34.621 32.5 59.783 0 21.648-9.395 36.174-25 39.619v-49.549c0-4.142-3.358-7.5-7.5-7.5s-7.5 3.358-7.5 7.5v49.549c-15.605-3.445-25-17.971-25-39.619z"/></g></svg>