<svg id="Capa_1" enable-background="new 0 0 512 512" height="512" viewBox="0 0 512 512" width="512" xmlns="http://www.w3.org/2000/svg"><g><g><g><g><g><g><path d="m425.455 193.106-205.177-132.299h-13.907l-173.224 111.696v310.376h392.308z" fill="#f2f9ff"/><path d="m256 28.806-49.629 32.001 205.177 132.299v289.773h67.305v-310.376z" fill="#e2f4ff"/><path d="m0 184.325c0 16.397 18.151 26.29 31.931 17.404l217.519-140.256c3.988-2.572 9.112-2.572 13.1 0l217.519 140.257c13.781 8.886 31.931-1.007 31.931-17.404 0-7.036-3.573-13.591-9.486-17.404l-239.964-154.73c-3.988-2.572-9.112-2.572-13.1 0l-239.964 154.729c-5.913 3.813-9.486 10.368-9.486 17.404z" fill="#afe2f7"/></g></g><path d="m259.702 148.227c-1.69-2.31-5.494-2.31-7.184 0-15.691 21.445-74.054 111.399 3.465 169.606h.254c77.519-58.207 19.157-148.161 3.465-169.606z" fill="#b5e245"/></g><g><path d="m279.895 363.119c-.612 2.158 1.967 4.243 4.961 4.555 112.622 11.736 139.063-73.082 133.304-82.996-4.747-8.173-110.651-18.931-138.265 78.441z" fill="#c6e873"/></g><g><g><g><g><g><g><g><path d="m232.105 363.119c.612 2.158-1.967 4.243-4.961 4.555-112.622 11.736-139.064-73.082-133.305-82.996 4.748-8.173 110.652-18.931 138.266 78.441z" fill="#c6e873"/></g><path d="m418.161 284.678c-.82-1.412-4.665-2.899-10.598-3.894-21.388 9.35-82.605 37.983-131.636 79.209-4.834 4.064-8.807 8.449-12.098 12.935v-218.829c-1.56-2.303-2.963-4.283-4.126-5.872-1.69-2.31-5.494-2.31-7.184 0-1.167 1.595-2.576 3.583-4.142 5.896v218.009c-3.414-4.361-7.556-8.568-12.617-12.392-50.708-38.313-111.778-69.108-131.904-78.853-5.598.993-9.223 2.426-10.016 3.79-.826 1.422-.985 4.387-.326 8.384 14.389 6.84 79.572 38.694 132.93 79.008 18.181 13.736 21.442 33.979 21.932 43.324v3.339c-.019.845-.017 4.573-.01 7.633h15.491c.028-3.295.052-7.405.037-8.696.449-7.999 3.406-30.236 21.978-45.851 51.388-43.207 118.811-73.03 132.639-78.911.629-3.918.464-6.826-.35-8.229z" fill="#a8d340"/></g></g></g></g></g></g></g></g><g><path d="m427.353 477.702c-42.494-34.849-103.528-56.703-171.353-56.703s-128.859 21.853-171.353 56.703z" fill="#ce9875"/><path d="m431.923 501.737c10.32 0 18.686-8.366 18.686-18.686v-18.686h-431.923c-10.32.001-18.686 8.367-18.686 18.686 0 10.32 8.366 18.686 18.686 18.686z" fill="#e4936b"/><path d="m493.314 464.366h-48.114v18.686c0 10.32-8.366 18.686-18.686 18.686h66.799c10.32 0 18.686-8.366 18.686-18.686.001-10.32-8.365-18.686-18.685-18.686z" fill="#dd6938"/></g></g></svg>